<svg class="svg-icon" style="width: 2rem; height: 2rem;vertical-align: middle;fill: currentColor;overflow: hidden;" viewBox="0 0 1024 1024" version="1.1" xmlns="http://www.w3.org/2000/svg"><path d="M768 954.944V896c0-30.528-6.272-59.328-16-86.464C839.104 739.2 896 632.768 896 512c0-212.032-171.968-384-384-384S128 299.968 128 512c0 120.768 56.896 227.2 144 297.536C262.272 836.672 256 865.472 256 896v58.944C103.104 866.368 0 701.376 0 512 0 229.248 229.248 0 512 0s512 229.248 512 512c0 189.376-103.104 354.368-256 442.944zM512 192c176.768 0 320 143.232 320 320 0 95.616-42.752 180.416-109.184 239.04-24.832-35.968-58.944-64.576-98.432-83.968C672.448 632.128 704 575.936 704 512c0-106.048-85.952-192-192-192s-192 85.952-192 192c0 63.936 31.552 120.128 79.616 155.072-39.488 19.456-73.6 48-98.432 83.968C234.752 692.416 192 607.616 192 512c0-176.768 143.232-320 320-320z m-128 320c0-70.656 57.344-128 128-128s128 57.344 128 128-57.344 128-128 128-128-57.344-128-128z m128 192a192 192 0 0 1 192 192v128H320v-128a192 192 0 0 1 192-192z"  /></svg>